<svg xmlns="http://www.w3.org/2000/svg" viewBox="0 0 330.15 330.15"><defs><style>.cls-1{fill:#1a56db;}.cls-2{fill:#fff;}</style></defs><g id="Layer_2" data-name="Layer 2"><g id="logo"><rect class="cls-1" width="330.15" height="330.15" rx="54.88"/><path class="cls-2" d="M204,267.84H126.15a42.37,42.37,0,0,1-42.37-42.37V156.16a6.28,6.28,0,0,1,6.28-6.27h17.58a6.28,6.28,0,0,1,6.28,6.27v69.31a12.24,12.24,0,0,0,12.23,12.24H204a12.24,12.24,0,0,0,12.24-12.24V156.16a6.28,6.28,0,0,1,6.28-6.27h17.58a6.28,6.28,0,0,1,6.28,6.27v69.31A42.37,42.37,0,0,1,204,267.84Z"/><path class="cls-2" d="M264,77.38h0v0a2,2,0,0,1,0-.24,15.07,15.07,0,0,0-30.14.26c0,.26,0,.52,0,.77.06,4.14-1,15.33-7,21.42-3.17,3.26-7.69,4.84-13.83,4.84h-95.9c-6.13,0-10.66-1.58-13.82-4.84-6-6.21-7.08-17.74-7-21.66V78h0c0-.21,0-.41,0-.62a15.06,15.06,0,0,0-30.11-.2v.2h0c-.1,4.7.24,27.3,15.28,43,8.9,9.28,21.23,14.19,35.64,14.19H213c14.42,0,26.74-4.91,35.65-14.19C263.71,104.68,264.05,82.07,264,77.38Z"/></g></g></svg>